<svg width="26" height="22" viewBox="0 0 35 32" fill="none" xmlns="http://www.w3.org/2000/svg">
<path d="M30.0606 4.51501C28.8436 3.39895 27.3972 2.51386 25.8047 1.91062C24.2122 1.30739 22.505 0.997924 20.7813 1.00001C19.0575 0.99776 17.3502 1.30715 15.7577 1.91039C14.1652 2.51363 12.7188 3.39882 11.5019 4.51501C10.281 5.62789 9.31275 6.95043 8.65278 8.40658C7.99282 9.86273 7.65415 11.4238 7.65626 13C7.65626 14.045 7.81813 15.054 8.09157 16.02C7.94829 16.011 7.80391 16 7.65626 16C6.79436 15.9991 5.94077 16.154 5.14453 16.4557C4.3483 16.7574 3.62513 17.2 3.01657 17.758C2.40607 18.3143 1.92191 18.9755 1.59192 19.7035C1.26193 20.4315 1.09263 21.212 1.09376 22C1.09376 23.754 1.82876 25.343 3.01657 26.492L7.65626 31V28C8.51815 28.0009 9.37175 27.846 10.168 27.5443C10.9642 27.2426 11.6874 26.8 12.2959 26.242C13.18 25.4335 13.7926 24.4106 14.0613 23.294C16.0904 24.4098 18.4134 24.9995 20.7813 25V31L30.0606 21.984C32.4363 19.685 33.9063 16.508 33.9063 13C33.9063 9.68601 32.4363 6.68701 30.0606 4.51501ZM28.467 20.613L22.9688 25.956V23H20.7813C18.3313 23 16.0114 22.26 14.105 20.91C13.8656 19.7159 13.2347 18.6166 12.2959 17.758C11.7985 17.3062 11.2255 16.9298 10.5984 16.643C10.1003 15.4824 9.84438 14.2468 9.84375 13C9.84002 11.6862 10.1213 10.3848 10.6714 9.17103C11.2215 7.95729 12.0294 6.85536 13.0484 5.92901C15.1134 4.04001 17.8598 3.00001 20.7813 3.00001C23.7027 3.00001 26.4491 4.04001 28.5141 5.93001C29.5332 6.85607 30.3412 7.95781 30.8913 9.1714C31.4414 10.385 31.7226 11.6863 31.7188 13C31.7188 15.881 30.5648 18.583 28.467 20.613Z" fill="#D85B53"/>
<path d="M20.7812 14.5C21.6873 14.5 22.4219 13.8284 22.4219 13C22.4219 12.1716 21.6873 11.5 20.7812 11.5C19.8752 11.5 19.1406 12.1716 19.1406 13C19.1406 13.8284 19.8752 14.5 20.7812 14.5Z" fill="#D85B53"/>
<path d="M26.25 14.5C27.1561 14.5 27.8906 13.8284 27.8906 13C27.8906 12.1716 27.1561 11.5 26.25 11.5C25.3439 11.5 24.6094 12.1716 24.6094 13C24.6094 13.8284 25.3439 14.5 26.25 14.5Z" fill="#D85B53"/>
<path d="M15.3125 14.5C16.2186 14.5 16.9531 13.8284 16.9531 13C16.9531 12.1716 16.2186 11.5 15.3125 11.5C14.4064 11.5 13.6719 12.1716 13.6719 13C13.6719 13.8284 14.4064 14.5 15.3125 14.5Z" fill="#D85B53"/>
</svg>
