<svg width="1440" height="911" viewBox="0 0 1440 911" fill="none" xmlns="http://www.w3.org/2000/svg">
<g clip-path="url(#clip0_240_65)">
<rect width="1440" height="911" fill="white"/>
<rect y="-14" width="1440" height="925" fill="#D9D9D9" fill-opacity="0.24"/>
<g clip-path="url(#clip1_240_65)">
<path d="M316.5 217.406C333.017 217.406 346.406 204.017 346.406 187.5C346.406 170.983 333.017 157.594 316.5 157.594C299.983 157.594 286.594 170.983 286.594 187.5C286.594 204.017 299.983 217.406 316.5 217.406Z" stroke="#E1E1E1" stroke-width="10" stroke-linecap="round" stroke-linejoin="round"/>
<path d="M322.844 146.719H316.5H310.156" stroke="#E1E1E1" stroke-width="10" stroke-linecap="round" stroke-linejoin="round"/>
<path d="M316.5 146.719V157.594" stroke="#E1E1E1" stroke-width="10" stroke-linecap="round" stroke-linejoin="round"/>
<path d="M292.147 154.179L287.663 158.663L283.179 163.147" stroke="#E1E1E1" stroke-width="10" stroke-linecap="round" stroke-linejoin="round"/>
<path d="M287.663 158.663L295.352 166.352" stroke="#E1E1E1" stroke-width="10" stroke-linecap="round" stroke-linejoin="round"/>
<path d="M275.719 181.156V187.5V193.844" stroke="#E1E1E1" stroke-width="10" stroke-linecap="round" stroke-linejoin="round"/>
<path d="M275.719 187.5H286.594" stroke="#E1E1E1" stroke-width="10" stroke-linecap="round" stroke-linejoin="round"/>
<path d="M283.179 211.853L287.663 216.337L292.147 220.821" stroke="#E1E1E1" stroke-width="10" stroke-linecap="round" stroke-linejoin="round"/>
<path d="M287.663 216.337L295.352 208.648" stroke="#E1E1E1" stroke-width="10" stroke-linecap="round" stroke-linejoin="round"/>
<path d="M310.156 228.281H316.5H322.844" stroke="#E1E1E1" stroke-width="10" stroke-linecap="round" stroke-linejoin="round"/>
<path d="M316.5 228.281V217.406" stroke="#E1E1E1" stroke-width="10" stroke-linecap="round" stroke-linejoin="round"/>
<path d="M340.853 220.821L345.337 216.337L349.821 211.853" stroke="#E1E1E1" stroke-width="10" stroke-linecap="round" stroke-linejoin="round"/>
<path d="M345.337 216.337L337.648 208.648" stroke="#E1E1E1" stroke-width="10" stroke-linecap="round" stroke-linejoin="round"/>
<path d="M357.281 193.844V187.5V181.156" stroke="#E1E1E1" stroke-width="10" stroke-linecap="round" stroke-linejoin="round"/>
<path d="M357.281 187.5H346.406" stroke="#E1E1E1" stroke-width="10" stroke-linecap="round" stroke-linejoin="round"/>
<path d="M349.821 163.147L345.337 158.663L340.853 154.179" stroke="#E1E1E1" stroke-width="10" stroke-linecap="round" stroke-linejoin="round"/>
<path d="M345.337 158.663L337.648 166.352" stroke="#E1E1E1" stroke-width="10" stroke-linecap="round" stroke-linejoin="round"/>
<path d="M333.719 190.219C334.72 190.219 335.531 189.407 335.531 188.406C335.531 187.405 334.72 186.594 333.719 186.594C332.718 186.594 331.906 187.405 331.906 188.406C331.906 189.407 332.718 190.219 333.719 190.219Z" stroke="#E1E1E1" stroke-width="10" stroke-linecap="round" stroke-linejoin="round"/>
<path d="M319.219 206.531C320.22 206.531 321.031 205.72 321.031 204.719C321.031 203.718 320.22 202.906 319.219 202.906C318.218 202.906 317.406 203.718 317.406 204.719C317.406 205.72 318.218 206.531 319.219 206.531Z" stroke="#E1E1E1" stroke-width="10" stroke-linecap="round" stroke-linejoin="round"/>
<path d="M307.438 184.781C310.941 184.781 313.781 181.941 313.781 178.438C313.781 174.934 310.941 172.094 307.438 172.094C303.934 172.094 301.094 174.934 301.094 178.438C301.094 181.941 303.934 184.781 307.438 184.781Z" stroke="#E1E1E1" stroke-width="10" stroke-linecap="round" stroke-linejoin="round"/>
</g>
<path d="M33 181.875C67.1726 181.875 94.875 154.173 94.875 120C94.875 85.8274 67.1726 58.125 33 58.125C-1.17262 58.125 -28.875 85.8274 -28.875 120C-28.875 154.173 -1.17262 181.875 33 181.875Z" stroke="#E1E1E1" stroke-width="10" stroke-linecap="round" stroke-linejoin="round"/>
<path d="M46.125 35.625H33H19.875" stroke="#E1E1E1" stroke-width="10" stroke-linecap="round" stroke-linejoin="round"/>
<path d="M33 35.625V58.125" stroke="#E1E1E1" stroke-width="10" stroke-linecap="round" stroke-linejoin="round"/>
<path d="M19.875 204.375H33H46.125" stroke="#E1E1E1" stroke-width="10" stroke-linecap="round" stroke-linejoin="round"/>
<path d="M33 204.375V181.875" stroke="#E1E1E1" stroke-width="10" stroke-linecap="round" stroke-linejoin="round"/>
<path d="M83.385 188.94L92.6625 179.663L101.94 170.385" stroke="#E1E1E1" stroke-width="10" stroke-linecap="round" stroke-linejoin="round"/>
<path d="M92.6625 179.663L76.755 163.755" stroke="#E1E1E1" stroke-width="10" stroke-linecap="round" stroke-linejoin="round"/>
<path d="M117.375 133.125V120V106.875" stroke="#E1E1E1" stroke-width="10" stroke-linecap="round" stroke-linejoin="round"/>
<path d="M117.375 120H94.875" stroke="#E1E1E1" stroke-width="10" stroke-linecap="round" stroke-linejoin="round"/>
<path d="M101.94 69.6151L92.6625 60.3376L83.385 51.0601" stroke="#E1E1E1" stroke-width="10" stroke-linecap="round" stroke-linejoin="round"/>
<path d="M92.6625 60.3375L76.755 76.245" stroke="#E1E1E1" stroke-width="10" stroke-linecap="round" stroke-linejoin="round"/>
<path d="M68.625 125.625C70.6961 125.625 72.375 123.946 72.375 121.875C72.375 119.804 70.6961 118.125 68.625 118.125C66.5539 118.125 64.875 119.804 64.875 121.875C64.875 123.946 66.5539 125.625 68.625 125.625Z" stroke="#E1E1E1" stroke-width="10" stroke-linecap="round" stroke-linejoin="round"/>
<path d="M38.625 159.375C40.6961 159.375 42.375 157.696 42.375 155.625C42.375 153.554 40.6961 151.875 38.625 151.875C36.5539 151.875 34.875 153.554 34.875 155.625C34.875 157.696 36.5539 159.375 38.625 159.375Z" stroke="#E1E1E1" stroke-width="10" stroke-linecap="round" stroke-linejoin="round"/>
<path d="M14.25 114.375C21.4987 114.375 27.375 108.499 27.375 101.25C27.375 94.0013 21.4987 88.125 14.25 88.125C7.00126 88.125 1.125 94.0013 1.125 101.25C1.125 108.499 7.00126 114.375 14.25 114.375Z" stroke="#E1E1E1" stroke-width="10" stroke-linecap="round" stroke-linejoin="round"/>
<g clip-path="url(#clip2_240_65)">
<path d="M611 165.125C637.579 165.125 659.125 143.579 659.125 117C659.125 90.4213 637.579 68.875 611 68.875C584.421 68.875 562.875 90.4213 562.875 117C562.875 143.579 584.421 165.125 611 165.125Z" stroke="#E1E1E1" stroke-width="10" stroke-linecap="round" stroke-linejoin="round"/>
<path d="M621.208 51.375H611H600.792" stroke="#E1E1E1" stroke-width="10" stroke-linecap="round" stroke-linejoin="round"/>
<path d="M611 51.375V68.875" stroke="#E1E1E1" stroke-width="10" stroke-linecap="round" stroke-linejoin="round"/>
<path d="M571.812 63.38L564.596 70.5958L557.38 77.8117" stroke="#E1E1E1" stroke-width="10" stroke-linecap="round" stroke-linejoin="round"/>
<path d="M564.596 70.5958L576.968 82.9683" stroke="#E1E1E1" stroke-width="10" stroke-linecap="round" stroke-linejoin="round"/>
<path d="M545.375 106.792V117V127.208" stroke="#E1E1E1" stroke-width="10" stroke-linecap="round" stroke-linejoin="round"/>
<path d="M545.375 117H562.875" stroke="#E1E1E1" stroke-width="10" stroke-linecap="round" stroke-linejoin="round"/>
<path d="M557.38 156.188L564.596 163.404L571.812 170.62" stroke="#E1E1E1" stroke-width="10" stroke-linecap="round" stroke-linejoin="round"/>
<path d="M564.596 163.404L576.968 151.032" stroke="#E1E1E1" stroke-width="10" stroke-linecap="round" stroke-linejoin="round"/>
<path d="M600.792 182.625H611H621.208" stroke="#E1E1E1" stroke-width="10" stroke-linecap="round" stroke-linejoin="round"/>
<path d="M611 182.625V165.125" stroke="#E1E1E1" stroke-width="10" stroke-linecap="round" stroke-linejoin="round"/>
<path d="M650.188 170.62L657.404 163.404L664.62 156.188" stroke="#E1E1E1" stroke-width="10" stroke-linecap="round" stroke-linejoin="round"/>
<path d="M657.404 163.404L645.032 151.032" stroke="#E1E1E1" stroke-width="10" stroke-linecap="round" stroke-linejoin="round"/>
<path d="M676.625 127.208V117V106.792" stroke="#E1E1E1" stroke-width="10" stroke-linecap="round" stroke-linejoin="round"/>
<path d="M676.625 117H659.125" stroke="#E1E1E1" stroke-width="10" stroke-linecap="round" stroke-linejoin="round"/>
<path d="M664.62 77.8117L657.404 70.5958L650.188 63.38" stroke="#E1E1E1" stroke-width="10" stroke-linecap="round" stroke-linejoin="round"/>
<path d="M657.404 70.5958L645.032 82.9683" stroke="#E1E1E1" stroke-width="10" stroke-linecap="round" stroke-linejoin="round"/>
<path d="M638.708 121.375C640.319 121.375 641.625 120.069 641.625 118.458C641.625 116.847 640.319 115.542 638.708 115.542C637.097 115.542 635.792 116.847 635.792 118.458C635.792 120.069 637.097 121.375 638.708 121.375Z" stroke="#E1E1E1" stroke-width="10" stroke-linecap="round" stroke-linejoin="round"/>
<path d="M615.375 147.625C616.986 147.625 618.292 146.319 618.292 144.708C618.292 143.097 616.986 141.792 615.375 141.792C613.764 141.792 612.458 143.097 612.458 144.708C612.458 146.319 613.764 147.625 615.375 147.625Z" stroke="#E1E1E1" stroke-width="10" stroke-linecap="round" stroke-linejoin="round"/>
<path d="M596.417 112.625C602.055 112.625 606.625 108.055 606.625 102.417C606.625 96.7788 602.055 92.2084 596.417 92.2084C590.779 92.2084 586.208 96.7788 586.208 102.417C586.208 108.055 590.779 112.625 596.417 112.625Z" stroke="#E1E1E1" stroke-width="10" stroke-linecap="round" stroke-linejoin="round"/>
</g>
<g clip-path="url(#clip3_240_65)">
<path d="M497.5 338.406C514.017 338.406 527.406 325.017 527.406 308.5C527.406 291.983 514.017 278.594 497.5 278.594C480.983 278.594 467.594 291.983 467.594 308.5C467.594 325.017 480.983 338.406 497.5 338.406Z" stroke="#E1E1E1" stroke-width="10" stroke-linecap="round" stroke-linejoin="round"/>
<path d="M503.844 267.719H497.5H491.156" stroke="#E1E1E1" stroke-width="10" stroke-linecap="round" stroke-linejoin="round"/>
<path d="M497.5 267.719V278.594" stroke="#E1E1E1" stroke-width="10" stroke-linecap="round" stroke-linejoin="round"/>
<path d="M473.147 275.179L468.663 279.663L464.179 284.147" stroke="#E1E1E1" stroke-width="10" stroke-linecap="round" stroke-linejoin="round"/>
<path d="M468.663 279.663L476.352 287.352" stroke="#E1E1E1" stroke-width="10" stroke-linecap="round" stroke-linejoin="round"/>
<path d="M456.719 302.156V308.5V314.844" stroke="#E1E1E1" stroke-width="10" stroke-linecap="round" stroke-linejoin="round"/>
<path d="M456.719 308.5H467.594" stroke="#E1E1E1" stroke-width="10" stroke-linecap="round" stroke-linejoin="round"/>
<path d="M464.179 332.853L468.663 337.337L473.147 341.821" stroke="#E1E1E1" stroke-width="10" stroke-linecap="round" stroke-linejoin="round"/>
<path d="M468.663 337.337L476.352 329.648" stroke="#E1E1E1" stroke-width="10" stroke-linecap="round" stroke-linejoin="round"/>
<path d="M491.156 349.281H497.5H503.844" stroke="#E1E1E1" stroke-width="10" stroke-linecap="round" stroke-linejoin="round"/>
<path d="M497.5 349.281V338.406" stroke="#E1E1E1" stroke-width="10" stroke-linecap="round" stroke-linejoin="round"/>
<path d="M521.853 341.821L526.337 337.337L530.821 332.853" stroke="#E1E1E1" stroke-width="10" stroke-linecap="round" stroke-linejoin="round"/>
<path d="M526.337 337.337L518.648 329.648" stroke="#E1E1E1" stroke-width="10" stroke-linecap="round" stroke-linejoin="round"/>
<path d="M538.281 314.844V308.5V302.156" stroke="#E1E1E1" stroke-width="10" stroke-linecap="round" stroke-linejoin="round"/>
<path d="M538.281 308.5H527.406" stroke="#E1E1E1" stroke-width="10" stroke-linecap="round" stroke-linejoin="round"/>
<path d="M530.821 284.147L526.337 279.663L521.853 275.179" stroke="#E1E1E1" stroke-width="10" stroke-linecap="round" stroke-linejoin="round"/>
<path d="M526.337 279.663L518.648 287.352" stroke="#E1E1E1" stroke-width="10" stroke-linecap="round" stroke-linejoin="round"/>
<path d="M514.719 311.219C515.72 311.219 516.531 310.407 516.531 309.406C516.531 308.405 515.72 307.594 514.719 307.594C513.718 307.594 512.906 308.405 512.906 309.406C512.906 310.407 513.718 311.219 514.719 311.219Z" stroke="#E1E1E1" stroke-width="10" stroke-linecap="round" stroke-linejoin="round"/>
<path d="M500.219 327.531C501.22 327.531 502.031 326.72 502.031 325.719C502.031 324.718 501.22 323.906 500.219 323.906C499.218 323.906 498.406 324.718 498.406 325.719C498.406 326.72 499.218 327.531 500.219 327.531Z" stroke="#E1E1E1" stroke-width="10" stroke-linecap="round" stroke-linejoin="round"/>
<path d="M488.438 305.781C491.941 305.781 494.781 302.941 494.781 299.438C494.781 295.934 491.941 293.094 488.438 293.094C484.934 293.094 482.094 295.934 482.094 299.438C482.094 302.941 484.934 305.781 488.438 305.781Z" stroke="#E1E1E1" stroke-width="10" stroke-linecap="round" stroke-linejoin="round"/>
</g>
<path d="M892 329.875C926.173 329.875 953.875 302.173 953.875 268C953.875 233.827 926.173 206.125 892 206.125C857.827 206.125 830.125 233.827 830.125 268C830.125 302.173 857.827 329.875 892 329.875Z" stroke="#E1E1E1" stroke-width="10" stroke-linecap="round" stroke-linejoin="round"/>
<path d="M905.125 183.625H892H878.875" stroke="#E1E1E1" stroke-width="10" stroke-linecap="round" stroke-linejoin="round"/>
<path d="M892 183.625V206.125" stroke="#E1E1E1" stroke-width="10" stroke-linecap="round" stroke-linejoin="round"/>
<path d="M841.615 199.06L832.338 208.338L823.06 217.615" stroke="#E1E1E1" stroke-width="10" stroke-linecap="round" stroke-linejoin="round"/>
<path d="M832.337 208.338L848.245 224.245" stroke="#E1E1E1" stroke-width="10" stroke-linecap="round" stroke-linejoin="round"/>
<path d="M807.625 254.875V268V281.125" stroke="#E1E1E1" stroke-width="10" stroke-linecap="round" stroke-linejoin="round"/>
<path d="M807.625 268H830.125" stroke="#E1E1E1" stroke-width="10" stroke-linecap="round" stroke-linejoin="round"/>
<path d="M823.06 318.385L832.338 327.663L841.615 336.94" stroke="#E1E1E1" stroke-width="10" stroke-linecap="round" stroke-linejoin="round"/>
<path d="M832.337 327.663L848.245 311.755" stroke="#E1E1E1" stroke-width="10" stroke-linecap="round" stroke-linejoin="round"/>
<path d="M878.875 352.375H892H905.125" stroke="#E1E1E1" stroke-width="10" stroke-linecap="round" stroke-linejoin="round"/>
<path d="M892 352.375V329.875" stroke="#E1E1E1" stroke-width="10" stroke-linecap="round" stroke-linejoin="round"/>
<path d="M942.385 336.94L951.663 327.663L960.94 318.385" stroke="#E1E1E1" stroke-width="10" stroke-linecap="round" stroke-linejoin="round"/>
<path d="M951.662 327.663L935.755 311.755" stroke="#E1E1E1" stroke-width="10" stroke-linecap="round" stroke-linejoin="round"/>
<path d="M976.375 281.125V268V254.875" stroke="#E1E1E1" stroke-width="10" stroke-linecap="round" stroke-linejoin="round"/>
<path d="M976.375 268H953.875" stroke="#E1E1E1" stroke-width="10" stroke-linecap="round" stroke-linejoin="round"/>
<path d="M960.94 217.615L951.663 208.338L942.385 199.06" stroke="#E1E1E1" stroke-width="10" stroke-linecap="round" stroke-linejoin="round"/>
<path d="M951.662 208.338L935.755 224.245" stroke="#E1E1E1" stroke-width="10" stroke-linecap="round" stroke-linejoin="round"/>
<path d="M927.625 273.625C929.696 273.625 931.375 271.946 931.375 269.875C931.375 267.804 929.696 266.125 927.625 266.125C925.554 266.125 923.875 267.804 923.875 269.875C923.875 271.946 925.554 273.625 927.625 273.625Z" stroke="#E1E1E1" stroke-width="10" stroke-linecap="round" stroke-linejoin="round"/>
<path d="M897.625 307.375C899.696 307.375 901.375 305.696 901.375 303.625C901.375 301.554 899.696 299.875 897.625 299.875C895.554 299.875 893.875 301.554 893.875 303.625C893.875 305.696 895.554 307.375 897.625 307.375Z" stroke="#E1E1E1" stroke-width="10" stroke-linecap="round" stroke-linejoin="round"/>
<path d="M873.25 262.375C880.499 262.375 886.375 256.499 886.375 249.25C886.375 242.001 880.499 236.125 873.25 236.125C866.001 236.125 860.125 242.001 860.125 249.25C860.125 256.499 866.001 262.375 873.25 262.375Z" stroke="#E1E1E1" stroke-width="10" stroke-linecap="round" stroke-linejoin="round"/>
<g clip-path="url(#clip4_240_65)">
<path d="M1194.5 238.787C1211.02 238.787 1224.41 226.875 1224.41 212.181C1224.41 197.487 1211.02 185.575 1194.5 185.575C1177.98 185.575 1164.59 197.487 1164.59 212.181C1164.59 226.875 1177.98 238.787 1194.5 238.787Z" stroke="#E1E1E1" stroke-width="10" stroke-linecap="round" stroke-linejoin="round"/>
<path d="M1200.84 175.9H1194.5H1188.16" stroke="#E1E1E1" stroke-width="10" stroke-linecap="round" stroke-linejoin="round"/>
<path d="M1194.5 175.9V185.575" stroke="#E1E1E1" stroke-width="10" stroke-linecap="round" stroke-linejoin="round"/>
<path d="M1170.15 182.537L1165.66 186.527L1161.18 190.516" stroke="#E1E1E1" stroke-width="10" stroke-linecap="round" stroke-linejoin="round"/>
<path d="M1165.66 186.526L1173.35 193.367" stroke="#E1E1E1" stroke-width="10" stroke-linecap="round" stroke-linejoin="round"/>
<path d="M1153.72 206.537V212.181V217.825" stroke="#E1E1E1" stroke-width="10" stroke-linecap="round" stroke-linejoin="round"/>
<path d="M1153.72 212.181H1164.59" stroke="#E1E1E1" stroke-width="10" stroke-linecap="round" stroke-linejoin="round"/>
<path d="M1161.18 233.847L1165.66 237.836L1170.15 241.825" stroke="#E1E1E1" stroke-width="10" stroke-linecap="round" stroke-linejoin="round"/>
<path d="M1165.66 237.836L1173.35 230.996" stroke="#E1E1E1" stroke-width="10" stroke-linecap="round" stroke-linejoin="round"/>
<path d="M1188.16 248.462H1194.5H1200.84" stroke="#E1E1E1" stroke-width="10" stroke-linecap="round" stroke-linejoin="round"/>
<path d="M1194.5 248.462V238.787" stroke="#E1E1E1" stroke-width="10" stroke-linecap="round" stroke-linejoin="round"/>
<path d="M1218.85 241.825L1223.34 237.836L1227.82 233.847" stroke="#E1E1E1" stroke-width="10" stroke-linecap="round" stroke-linejoin="round"/>
<path d="M1223.34 237.836L1215.65 230.996" stroke="#E1E1E1" stroke-width="10" stroke-linecap="round" stroke-linejoin="round"/>
<path d="M1235.28 217.825V212.181V206.537" stroke="#E1E1E1" stroke-width="10" stroke-linecap="round" stroke-linejoin="round"/>
<path d="M1235.28 212.181H1224.41" stroke="#E1E1E1" stroke-width="10" stroke-linecap="round" stroke-linejoin="round"/>
<path d="M1227.82 190.516L1223.34 186.527L1218.85 182.537" stroke="#E1E1E1" stroke-width="10" stroke-linecap="round" stroke-linejoin="round"/>
<path d="M1223.34 186.526L1215.65 193.367" stroke="#E1E1E1" stroke-width="10" stroke-linecap="round" stroke-linejoin="round"/>
<path d="M1211.72 214.6C1212.72 214.6 1213.53 213.878 1213.53 212.987C1213.53 212.097 1212.72 211.375 1211.72 211.375C1210.72 211.375 1209.91 212.097 1209.91 212.987C1209.91 213.878 1210.72 214.6 1211.72 214.6Z" stroke="#E1E1E1" stroke-width="10" stroke-linecap="round" stroke-linejoin="round"/>
<path d="M1197.22 229.112C1198.22 229.112 1199.03 228.39 1199.03 227.5C1199.03 226.609 1198.22 225.887 1197.22 225.887C1196.22 225.887 1195.41 226.609 1195.41 227.5C1195.41 228.39 1196.22 229.112 1197.22 229.112Z" stroke="#E1E1E1" stroke-width="10" stroke-linecap="round" stroke-linejoin="round"/>
<path d="M1185.44 209.762C1188.94 209.762 1191.78 207.236 1191.78 204.119C1191.78 201.002 1188.94 198.475 1185.44 198.475C1181.93 198.475 1179.09 201.002 1179.09 204.119C1179.09 207.236 1181.93 209.762 1185.44 209.762Z" stroke="#E1E1E1" stroke-width="10" stroke-linecap="round" stroke-linejoin="round"/>
</g>
<g clip-path="url(#clip5_240_65)">
<path d="M690.5 562.406C707.017 562.406 720.406 549.017 720.406 532.5C720.406 515.983 707.017 502.594 690.5 502.594C673.983 502.594 660.594 515.983 660.594 532.5C660.594 549.017 673.983 562.406 690.5 562.406Z" stroke="#E1E1E1" stroke-width="10" stroke-linecap="round" stroke-linejoin="round"/>
<path d="M696.844 491.719H690.5H684.156" stroke="#E1E1E1" stroke-width="10" stroke-linecap="round" stroke-linejoin="round"/>
<path d="M690.5 491.719V502.594" stroke="#E1E1E1" stroke-width="10" stroke-linecap="round" stroke-linejoin="round"/>
<path d="M666.147 499.179L661.663 503.663L657.179 508.147" stroke="#E1E1E1" stroke-width="10" stroke-linecap="round" stroke-linejoin="round"/>
<path d="M661.663 503.663L669.352 511.352" stroke="#E1E1E1" stroke-width="10" stroke-linecap="round" stroke-linejoin="round"/>
<path d="M649.719 526.156V532.5V538.844" stroke="#E1E1E1" stroke-width="10" stroke-linecap="round" stroke-linejoin="round"/>
<path d="M649.719 532.5H660.594" stroke="#E1E1E1" stroke-width="10" stroke-linecap="round" stroke-linejoin="round"/>
<path d="M657.179 556.853L661.663 561.337L666.147 565.821" stroke="#E1E1E1" stroke-width="10" stroke-linecap="round" stroke-linejoin="round"/>
<path d="M661.663 561.337L669.352 553.648" stroke="#E1E1E1" stroke-width="10" stroke-linecap="round" stroke-linejoin="round"/>
<path d="M684.156 573.281H690.5H696.844" stroke="#E1E1E1" stroke-width="10" stroke-linecap="round" stroke-linejoin="round"/>
<path d="M690.5 573.281V562.406" stroke="#E1E1E1" stroke-width="10" stroke-linecap="round" stroke-linejoin="round"/>
<path d="M714.853 565.821L719.337 561.337L723.821 556.853" stroke="#E1E1E1" stroke-width="10" stroke-linecap="round" stroke-linejoin="round"/>
<path d="M719.337 561.337L711.648 553.648" stroke="#E1E1E1" stroke-width="10" stroke-linecap="round" stroke-linejoin="round"/>
<path d="M731.281 538.844V532.5V526.156" stroke="#E1E1E1" stroke-width="10" stroke-linecap="round" stroke-linejoin="round"/>
<path d="M731.281 532.5H720.406" stroke="#E1E1E1" stroke-width="10" stroke-linecap="round" stroke-linejoin="round"/>
<path d="M723.821 508.147L719.337 503.663L714.853 499.179" stroke="#E1E1E1" stroke-width="10" stroke-linecap="round" stroke-linejoin="round"/>
<path d="M719.337 503.663L711.648 511.352" stroke="#E1E1E1" stroke-width="10" stroke-linecap="round" stroke-linejoin="round"/>
<path d="M707.719 535.219C708.72 535.219 709.531 534.407 709.531 533.406C709.531 532.405 708.72 531.594 707.719 531.594C706.718 531.594 705.906 532.405 705.906 533.406C705.906 534.407 706.718 535.219 707.719 535.219Z" stroke="#E1E1E1" stroke-width="10" stroke-linecap="round" stroke-linejoin="round"/>
<path d="M693.219 551.531C694.22 551.531 695.031 550.72 695.031 549.719C695.031 548.718 694.22 547.906 693.219 547.906C692.218 547.906 691.406 548.718 691.406 549.719C691.406 550.72 692.218 551.531 693.219 551.531Z" stroke="#E1E1E1" stroke-width="10" stroke-linecap="round" stroke-linejoin="round"/>
<path d="M681.438 529.781C684.941 529.781 687.781 526.941 687.781 523.438C687.781 519.934 684.941 517.094 681.438 517.094C677.934 517.094 675.094 519.934 675.094 523.438C675.094 526.941 677.934 529.781 681.438 529.781Z" stroke="#E1E1E1" stroke-width="10" stroke-linecap="round" stroke-linejoin="round"/>
</g>
<path d="M423 716.875C457.173 716.875 484.875 689.173 484.875 655C484.875 620.827 457.173 593.125 423 593.125C388.827 593.125 361.125 620.827 361.125 655C361.125 689.173 388.827 716.875 423 716.875Z" stroke="#E1E1E1" stroke-width="10" stroke-linecap="round" stroke-linejoin="round"/>
<path d="M436.125 570.625H423H409.875" stroke="#E1E1E1" stroke-width="10" stroke-linecap="round" stroke-linejoin="round"/>
<path d="M423 570.625V593.125" stroke="#E1E1E1" stroke-width="10" stroke-linecap="round" stroke-linejoin="round"/>
<path d="M372.615 586.06L363.338 595.338L354.06 604.615" stroke="#E1E1E1" stroke-width="10" stroke-linecap="round" stroke-linejoin="round"/>
<path d="M363.338 595.337L379.245 611.245" stroke="#E1E1E1" stroke-width="10" stroke-linecap="round" stroke-linejoin="round"/>
<path d="M338.625 641.875V655V668.125" stroke="#E1E1E1" stroke-width="10" stroke-linecap="round" stroke-linejoin="round"/>
<path d="M338.625 655H361.125" stroke="#E1E1E1" stroke-width="10" stroke-linecap="round" stroke-linejoin="round"/>
<path d="M354.06 705.385L363.338 714.663L372.615 723.94" stroke="#E1E1E1" stroke-width="10" stroke-linecap="round" stroke-linejoin="round"/>
<path d="M363.338 714.662L379.245 698.755" stroke="#E1E1E1" stroke-width="10" stroke-linecap="round" stroke-linejoin="round"/>
<path d="M409.875 739.375H423H436.125" stroke="#E1E1E1" stroke-width="10" stroke-linecap="round" stroke-linejoin="round"/>
<path d="M423 739.375V716.875" stroke="#E1E1E1" stroke-width="10" stroke-linecap="round" stroke-linejoin="round"/>
<path d="M473.385 723.94L482.663 714.663L491.94 705.385" stroke="#E1E1E1" stroke-width="10" stroke-linecap="round" stroke-linejoin="round"/>
<path d="M482.663 714.662L466.755 698.755" stroke="#E1E1E1" stroke-width="10" stroke-linecap="round" stroke-linejoin="round"/>
<path d="M507.375 668.125V655V641.875" stroke="#E1E1E1" stroke-width="10" stroke-linecap="round" stroke-linejoin="round"/>
<path d="M507.375 655H484.875" stroke="#E1E1E1" stroke-width="10" stroke-linecap="round" stroke-linejoin="round"/>
<path d="M491.94 604.615L482.663 595.338L473.385 586.06" stroke="#E1E1E1" stroke-width="10" stroke-linecap="round" stroke-linejoin="round"/>
<path d="M482.663 595.337L466.755 611.245" stroke="#E1E1E1" stroke-width="10" stroke-linecap="round" stroke-linejoin="round"/>
<path d="M458.625 660.625C460.696 660.625 462.375 658.946 462.375 656.875C462.375 654.804 460.696 653.125 458.625 653.125C456.554 653.125 454.875 654.804 454.875 656.875C454.875 658.946 456.554 660.625 458.625 660.625Z" stroke="#E1E1E1" stroke-width="10" stroke-linecap="round" stroke-linejoin="round"/>
<path d="M428.625 694.375C430.696 694.375 432.375 692.696 432.375 690.625C432.375 688.554 430.696 686.875 428.625 686.875C426.554 686.875 424.875 688.554 424.875 690.625C424.875 692.696 426.554 694.375 428.625 694.375Z" stroke="#E1E1E1" stroke-width="10" stroke-linecap="round" stroke-linejoin="round"/>
<path d="M404.25 649.375C411.499 649.375 417.375 643.499 417.375 636.25C417.375 629.001 411.499 623.125 404.25 623.125C397.001 623.125 391.125 629.001 391.125 636.25C391.125 643.499 397.001 649.375 404.25 649.375Z" stroke="#E1E1E1" stroke-width="10" stroke-linecap="round" stroke-linejoin="round"/>
<path d="M846 820.875C880.173 820.875 907.875 793.173 907.875 759C907.875 724.827 880.173 697.125 846 697.125C811.827 697.125 784.125 724.827 784.125 759C784.125 793.173 811.827 820.875 846 820.875Z" stroke="#E1E1E1" stroke-width="10" stroke-linecap="round" stroke-linejoin="round"/>
<path d="M859.125 674.625H846H832.875" stroke="#E1E1E1" stroke-width="10" stroke-linecap="round" stroke-linejoin="round"/>
<path d="M846 674.625V697.125" stroke="#E1E1E1" stroke-width="10" stroke-linecap="round" stroke-linejoin="round"/>
<path d="M795.615 690.06L786.338 699.338L777.06 708.615" stroke="#E1E1E1" stroke-width="10" stroke-linecap="round" stroke-linejoin="round"/>
<path d="M786.337 699.337L802.245 715.245" stroke="#E1E1E1" stroke-width="10" stroke-linecap="round" stroke-linejoin="round"/>
<path d="M761.625 745.875V759V772.125" stroke="#E1E1E1" stroke-width="10" stroke-linecap="round" stroke-linejoin="round"/>
<path d="M761.625 759H784.125" stroke="#E1E1E1" stroke-width="10" stroke-linecap="round" stroke-linejoin="round"/>
<path d="M777.06 809.385L786.338 818.663L795.615 827.94" stroke="#E1E1E1" stroke-width="10" stroke-linecap="round" stroke-linejoin="round"/>
<path d="M786.337 818.662L802.245 802.755" stroke="#E1E1E1" stroke-width="10" stroke-linecap="round" stroke-linejoin="round"/>
<path d="M832.875 843.375H846H859.125" stroke="#E1E1E1" stroke-width="10" stroke-linecap="round" stroke-linejoin="round"/>
<path d="M846 843.375V820.875" stroke="#E1E1E1" stroke-width="10" stroke-linecap="round" stroke-linejoin="round"/>
<path d="M896.385 827.94L905.663 818.663L914.94 809.385" stroke="#E1E1E1" stroke-width="10" stroke-linecap="round" stroke-linejoin="round"/>
<path d="M905.662 818.662L889.755 802.755" stroke="#E1E1E1" stroke-width="10" stroke-linecap="round" stroke-linejoin="round"/>
<path d="M930.375 772.125V759V745.875" stroke="#E1E1E1" stroke-width="10" stroke-linecap="round" stroke-linejoin="round"/>
<path d="M930.375 759H907.875" stroke="#E1E1E1" stroke-width="10" stroke-linecap="round" stroke-linejoin="round"/>
<path d="M914.94 708.615L905.663 699.338L896.385 690.06" stroke="#E1E1E1" stroke-width="10" stroke-linecap="round" stroke-linejoin="round"/>
<path d="M905.662 699.337L889.755 715.245" stroke="#E1E1E1" stroke-width="10" stroke-linecap="round" stroke-linejoin="round"/>
<path d="M881.625 764.625C883.696 764.625 885.375 762.946 885.375 760.875C885.375 758.804 883.696 757.125 881.625 757.125C879.554 757.125 877.875 758.804 877.875 760.875C877.875 762.946 879.554 764.625 881.625 764.625Z" stroke="#E1E1E1" stroke-width="10" stroke-linecap="round" stroke-linejoin="round"/>
<path d="M851.625 798.375C853.696 798.375 855.375 796.696 855.375 794.625C855.375 792.554 853.696 790.875 851.625 790.875C849.554 790.875 847.875 792.554 847.875 794.625C847.875 796.696 849.554 798.375 851.625 798.375Z" stroke="#E1E1E1" stroke-width="10" stroke-linecap="round" stroke-linejoin="round"/>
<path d="M827.25 753.375C834.499 753.375 840.375 747.499 840.375 740.25C840.375 733.001 834.499 727.125 827.25 727.125C820.001 727.125 814.125 733.001 814.125 740.25C814.125 747.499 820.001 753.375 827.25 753.375Z" stroke="#E1E1E1" stroke-width="10" stroke-linecap="round" stroke-linejoin="round"/>
<g clip-path="url(#clip6_240_65)">
<path d="M49.5 622.226C66.0168 622.226 79.4062 610.314 79.4062 595.62C79.4062 580.925 66.0168 569.014 49.5 569.014C32.9832 569.014 19.5938 580.925 19.5938 595.62C19.5938 610.314 32.9832 622.226 49.5 622.226Z" stroke="#E1E1E1" stroke-width="10" stroke-linecap="round" stroke-linejoin="round"/>
<path d="M55.8438 559.339H49.5H43.1562" stroke="#E1E1E1" stroke-width="10" stroke-linecap="round" stroke-linejoin="round"/>
<path d="M49.5 559.339V569.014" stroke="#E1E1E1" stroke-width="10" stroke-linecap="round" stroke-linejoin="round"/>
<path d="M25.1472 565.976L20.6631 569.965L16.179 573.954" stroke="#E1E1E1" stroke-width="10" stroke-linecap="round" stroke-linejoin="round"/>
<path d="M20.6631 569.965L28.3517 576.805" stroke="#E1E1E1" stroke-width="10" stroke-linecap="round" stroke-linejoin="round"/>
<path d="M8.71875 589.976V595.62V601.263" stroke="#E1E1E1" stroke-width="10" stroke-linecap="round" stroke-linejoin="round"/>
<path d="M8.71875 595.62H19.5938" stroke="#E1E1E1" stroke-width="10" stroke-linecap="round" stroke-linejoin="round"/>
<path d="M16.179 617.285L20.6631 621.274L25.1472 625.263" stroke="#E1E1E1" stroke-width="10" stroke-linecap="round" stroke-linejoin="round"/>
<path d="M20.6631 621.274L28.3517 614.434" stroke="#E1E1E1" stroke-width="10" stroke-linecap="round" stroke-linejoin="round"/>
<path d="M43.1562 631.901H49.5H55.8438" stroke="#E1E1E1" stroke-width="10" stroke-linecap="round" stroke-linejoin="round"/>
<path d="M49.5 631.901V622.226" stroke="#E1E1E1" stroke-width="10" stroke-linecap="round" stroke-linejoin="round"/>
<path d="M73.8528 625.263L78.3369 621.274L82.821 617.285" stroke="#E1E1E1" stroke-width="10" stroke-linecap="round" stroke-linejoin="round"/>
<path d="M78.3368 621.274L70.6482 614.434" stroke="#E1E1E1" stroke-width="10" stroke-linecap="round" stroke-linejoin="round"/>
<path d="M90.2812 601.263V595.62V589.976" stroke="#E1E1E1" stroke-width="10" stroke-linecap="round" stroke-linejoin="round"/>
<path d="M90.2812 595.62H79.4062" stroke="#E1E1E1" stroke-width="10" stroke-linecap="round" stroke-linejoin="round"/>
<path d="M82.821 573.954L78.3369 569.965L73.8528 565.976" stroke="#E1E1E1" stroke-width="10" stroke-linecap="round" stroke-linejoin="round"/>
<path d="M78.3368 569.965L70.6482 576.805" stroke="#E1E1E1" stroke-width="10" stroke-linecap="round" stroke-linejoin="round"/>
<path d="M66.7187 598.038C67.7198 598.038 68.5312 597.317 68.5312 596.426C68.5312 595.535 67.7198 594.813 66.7187 594.813C65.7177 594.813 64.9062 595.535 64.9062 596.426C64.9062 597.317 65.7177 598.038 66.7187 598.038Z" stroke="#E1E1E1" stroke-width="10" stroke-linecap="round" stroke-linejoin="round"/>
<path d="M52.2187 612.551C53.2198 612.551 54.0312 611.829 54.0312 610.938C54.0312 610.048 53.2198 609.326 52.2187 609.326C51.2177 609.326 50.4062 610.048 50.4062 610.938C50.4062 611.829 51.2177 612.551 52.2187 612.551Z" stroke="#E1E1E1" stroke-width="10" stroke-linecap="round" stroke-linejoin="round"/>
<path d="M40.4375 593.201C43.9411 593.201 46.7812 590.674 46.7812 587.557C46.7812 584.44 43.9411 581.914 40.4375 581.914C36.9339 581.914 34.0938 584.44 34.0938 587.557C34.0938 590.674 36.9339 593.201 40.4375 593.201Z" stroke="#E1E1E1" stroke-width="10" stroke-linecap="round" stroke-linejoin="round"/>
</g>
<path d="M1373 151.875C1407.17 151.875 1434.88 124.173 1434.88 90C1434.88 55.8274 1407.17 28.125 1373 28.125C1338.83 28.125 1311.12 55.8274 1311.12 90C1311.12 124.173 1338.83 151.875 1373 151.875Z" stroke="#E1E1E1" stroke-width="10" stroke-linecap="round" stroke-linejoin="round"/>
<path d="M1386.12 5.625H1373H1359.88" stroke="#E1E1E1" stroke-width="10" stroke-linecap="round" stroke-linejoin="round"/>
<path d="M1373 5.625V28.125" stroke="#E1E1E1" stroke-width="10" stroke-linecap="round" stroke-linejoin="round"/>
<path d="M1322.62 21.0601L1313.34 30.3376L1304.06 39.6151" stroke="#E1E1E1" stroke-width="10" stroke-linecap="round" stroke-linejoin="round"/>
<path d="M1313.34 30.3375L1329.24 46.245" stroke="#E1E1E1" stroke-width="10" stroke-linecap="round" stroke-linejoin="round"/>
<path d="M1288.62 76.875V90V103.125" stroke="#E1E1E1" stroke-width="10" stroke-linecap="round" stroke-linejoin="round"/>
<path d="M1288.62 90H1311.12" stroke="#E1E1E1" stroke-width="10" stroke-linecap="round" stroke-linejoin="round"/>
<path d="M1304.06 140.385L1313.34 149.663L1322.62 158.94" stroke="#E1E1E1" stroke-width="10" stroke-linecap="round" stroke-linejoin="round"/>
<path d="M1313.34 149.663L1329.24 133.755" stroke="#E1E1E1" stroke-width="10" stroke-linecap="round" stroke-linejoin="round"/>
<path d="M1359.88 174.375H1373H1386.12" stroke="#E1E1E1" stroke-width="10" stroke-linecap="round" stroke-linejoin="round"/>
<path d="M1373 174.375V151.875" stroke="#E1E1E1" stroke-width="10" stroke-linecap="round" stroke-linejoin="round"/>
<path d="M1423.39 158.94L1432.66 149.663L1441.94 140.385" stroke="#E1E1E1" stroke-width="10" stroke-linecap="round" stroke-linejoin="round"/>
<path d="M1432.66 149.663L1416.75 133.755" stroke="#E1E1E1" stroke-width="10" stroke-linecap="round" stroke-linejoin="round"/>
<path d="M1457.38 90H1434.88" stroke="#E1E1E1" stroke-width="10" stroke-linecap="round" stroke-linejoin="round"/>
<path d="M1441.94 39.6151L1432.66 30.3376L1423.39 21.0601" stroke="#E1E1E1" stroke-width="10" stroke-linecap="round" stroke-linejoin="round"/>
<path d="M1432.66 30.3375L1416.75 46.245" stroke="#E1E1E1" stroke-width="10" stroke-linecap="round" stroke-linejoin="round"/>
<path d="M1408.62 95.625C1410.7 95.625 1412.38 93.9461 1412.38 91.875C1412.38 89.8039 1410.7 88.125 1408.62 88.125C1406.55 88.125 1404.88 89.8039 1404.88 91.875C1404.88 93.9461 1406.55 95.625 1408.62 95.625Z" stroke="#E1E1E1" stroke-width="10" stroke-linecap="round" stroke-linejoin="round"/>
<path d="M1378.62 129.375C1380.7 129.375 1382.38 127.696 1382.38 125.625C1382.38 123.554 1380.7 121.875 1378.62 121.875C1376.55 121.875 1374.88 123.554 1374.88 125.625C1374.88 127.696 1376.55 129.375 1378.62 129.375Z" stroke="#E1E1E1" stroke-width="10" stroke-linecap="round" stroke-linejoin="round"/>
<path d="M1354.25 84.375C1361.5 84.375 1367.38 78.4987 1367.38 71.25C1367.38 64.0013 1361.5 58.125 1354.25 58.125C1347 58.125 1341.12 64.0013 1341.12 71.25C1341.12 78.4987 1347 84.375 1354.25 84.375Z" stroke="#E1E1E1" stroke-width="10" stroke-linecap="round" stroke-linejoin="round"/>
<path d="M1241 978.875C1275.17 978.875 1302.88 951.173 1302.88 917C1302.88 882.827 1275.17 855.125 1241 855.125C1206.83 855.125 1179.12 882.827 1179.12 917C1179.12 951.173 1206.83 978.875 1241 978.875Z" stroke="#E1E1E1" stroke-width="10" stroke-linecap="round" stroke-linejoin="round"/>
<path d="M1254.12 832.625H1241H1227.88" stroke="#E1E1E1" stroke-width="10" stroke-linecap="round" stroke-linejoin="round"/>
<path d="M1241 832.625V855.125" stroke="#E1E1E1" stroke-width="10" stroke-linecap="round" stroke-linejoin="round"/>
<path d="M1190.62 848.06L1181.34 857.338L1172.06 866.615" stroke="#E1E1E1" stroke-width="10" stroke-linecap="round" stroke-linejoin="round"/>
<path d="M1181.34 857.337L1197.24 873.245" stroke="#E1E1E1" stroke-width="10" stroke-linecap="round" stroke-linejoin="round"/>
<path d="M1156.62 903.875V917V930.125" stroke="#E1E1E1" stroke-width="10" stroke-linecap="round" stroke-linejoin="round"/>
<path d="M1325.38 930.125V917V903.875" stroke="#E1E1E1" stroke-width="10" stroke-linecap="round" stroke-linejoin="round"/>
<path d="M1309.94 866.615L1300.66 857.338L1291.39 848.06" stroke="#E1E1E1" stroke-width="10" stroke-linecap="round" stroke-linejoin="round"/>
<path d="M1300.66 857.337L1284.75 873.245" stroke="#E1E1E1" stroke-width="10" stroke-linecap="round" stroke-linejoin="round"/>
<path d="M1276.62 922.625C1278.7 922.625 1280.38 920.946 1280.38 918.875C1280.38 916.804 1278.7 915.125 1276.62 915.125C1274.55 915.125 1272.88 916.804 1272.88 918.875C1272.88 920.946 1274.55 922.625 1276.62 922.625Z" stroke="#E1E1E1" stroke-width="10" stroke-linecap="round" stroke-linejoin="round"/>
<path d="M1222.25 911.375C1229.5 911.375 1235.38 905.499 1235.38 898.25C1235.38 891.001 1229.5 885.125 1222.25 885.125C1215 885.125 1209.12 891.001 1209.12 898.25C1209.12 905.499 1215 911.375 1222.25 911.375Z" stroke="#E1E1E1" stroke-width="10" stroke-linecap="round" stroke-linejoin="round"/>
<path d="M-5 992.875C29.1726 992.875 56.875 965.173 56.875 931C56.875 896.827 29.1726 869.125 -5 869.125C-39.1726 869.125 -66.875 896.827 -66.875 931C-66.875 965.173 -39.1726 992.875 -5 992.875Z" stroke="#E1E1E1" stroke-width="10" stroke-linecap="round" stroke-linejoin="round"/>
<path d="M8.125 846.625H-5H-18.125" stroke="#E1E1E1" stroke-width="10" stroke-linecap="round" stroke-linejoin="round"/>
<path d="M63.94 880.615L54.6625 871.338L45.385 862.06" stroke="#E1E1E1" stroke-width="10" stroke-linecap="round" stroke-linejoin="round"/>
<path d="M54.6625 871.337L38.755 887.245" stroke="#E1E1E1" stroke-width="10" stroke-linecap="round" stroke-linejoin="round"/>
</g>
<defs>
<clipPath id="clip0_240_65">
<rect width="1440" height="911" fill="white"/>
</clipPath>
<clipPath id="clip1_240_65">
<rect width="87" height="87" fill="white" transform="translate(273 144)"/>
</clipPath>
<clipPath id="clip2_240_65">
<rect width="140" height="140" fill="white" transform="translate(541 47)"/>
</clipPath>
<clipPath id="clip3_240_65">
<rect width="87" height="87" fill="white" transform="translate(454 265)"/>
</clipPath>
<clipPath id="clip4_240_65">
<rect width="87" height="77.3994" fill="white" transform="translate(1151 173.481)"/>
</clipPath>
<clipPath id="clip5_240_65">
<rect width="87" height="87" fill="white" transform="translate(647 489)"/>
</clipPath>
<clipPath id="clip6_240_65">
<rect width="87" height="77.3994" fill="white" transform="translate(6 556.92)"/>
</clipPath>
</defs>
</svg>
