<svg width="28" height="28" viewBox="0 0 28 28" fill="none" xmlns="http://www.w3.org/2000/svg">
<path d="M10 19.5001C9.78681 19.5004 9.57599 19.4552 9.38162 19.3676C9.18724 19.28 9.01377 19.152 8.87278 18.9921C8.73178 18.8322 8.6265 18.644 8.56394 18.4402C8.50139 18.2364 8.483 18.0216 8.51001 17.8101L9.07001 13.4501C9.11167 13.1221 9.25912 12.8167 9.49001 12.5801L20.35 1.73008C20.7322 1.31327 21.1948 0.978141 21.71 0.744879C22.2251 0.511617 22.7822 0.385052 23.3476 0.372808C23.9129 0.360565 24.4749 0.462897 24.9997 0.67364C25.5245 0.884382 26.0012 1.19917 26.401 1.59905C26.8009 1.99892 27.1157 2.47561 27.3265 3.00038C27.5372 3.52516 27.6395 4.08716 27.6273 4.65254C27.615 5.21792 27.4885 5.77496 27.2552 6.29012C27.0219 6.80528 26.6868 7.26789 26.27 7.65008L15.42 18.5101C15.1834 18.741 14.878 18.8884 14.55 18.9301L10.19 19.4901L10 19.5001ZM12 14.3401L11.75 16.2701L13.66 16.0001L24.15 5.53008C24.2613 5.42031 24.3496 5.28953 24.4099 5.14533C24.4702 5.00113 24.5013 4.84638 24.5013 4.69008C24.5013 4.53378 24.4702 4.37904 24.4099 4.23484C24.3496 4.09064 24.2613 3.95986 24.15 3.85008C23.9245 3.63256 23.6233 3.511 23.31 3.511C22.9967 3.511 22.6955 3.63256 22.47 3.85008L12 14.3401Z" fill="#EA4559"/>
<path d="M22.89 10.4101C22.4968 10.4167 22.1165 10.2696 21.83 10.0001L18 6.17012C17.8526 6.0328 17.7344 5.8672 17.6524 5.6832C17.5705 5.4992 17.5264 5.30057 17.5228 5.09917C17.5193 4.89776 17.5563 4.6977 17.6318 4.51093C17.7072 4.32415 17.8195 4.15448 17.9619 4.01205C18.1044 3.86961 18.274 3.75732 18.4608 3.68188C18.6476 3.60643 18.8476 3.56939 19.049 3.57294C19.2505 3.57649 19.4491 3.62058 19.6331 3.70256C19.8171 3.78454 19.9827 3.90275 20.12 4.05012L24 7.85012C24.2095 8.0599 24.3522 8.32705 24.4099 8.61785C24.4677 8.90865 24.438 9.21004 24.3246 9.48397C24.2112 9.7579 24.0191 9.99207 23.7727 10.1569C23.5262 10.3217 23.2365 10.4099 22.94 10.4101H22.89ZM24 27.5001H2C1.60218 27.5001 1.22064 27.3421 0.93934 27.0608C0.658035 26.7795 0.5 26.3979 0.5 26.0001V4.00012C0.5 3.6023 0.658035 3.22077 0.93934 2.93946C1.22064 2.65816 1.60218 2.50012 2 2.50012H13C13.3978 2.50012 13.7794 2.65816 14.0607 2.93946C14.342 3.22077 14.5 3.6023 14.5 4.00012C14.5 4.39795 14.342 4.77948 14.0607 5.06078C13.7794 5.34209 13.3978 5.50012 13 5.50012H3.5V24.5001H22.5V15.0001C22.5 14.6023 22.658 14.2208 22.9393 13.9395C23.2206 13.6582 23.6022 13.5001 24 13.5001C24.3978 13.5001 24.7794 13.6582 25.0607 13.9395C25.342 14.2208 25.5 14.6023 25.5 15.0001V26.0001C25.5 26.3979 25.342 26.7795 25.0607 27.0608C24.7794 27.3421 24.3978 27.5001 24 27.5001Z" fill="#EA4559"/>
</svg>
