<svg width="45" height="38" viewBox="0 0 45 38" fill="none" xmlns="http://www.w3.org/2000/svg">
<path d="M38.2905 5.72048C36.7605 4.43004 34.9422 3.40665 32.9402 2.70916C30.9382 2.01167 28.792 1.65385 26.625 1.65626C24.458 1.65366 22.3117 2.0114 20.3097 2.70889C18.3077 3.40639 16.4894 4.42988 14.9595 5.72048C13.4247 7.00725 12.2075 8.53643 11.3778 10.2201C10.5481 11.9038 10.1224 13.7088 10.125 15.5313C10.125 16.7395 10.3285 17.9062 10.6723 19.0231C10.4921 19.0127 10.3106 19 10.125 19C9.04148 18.999 7.96839 19.1781 6.96741 19.5269C5.96644 19.8757 5.0573 20.3875 4.29226 21.0327C3.52478 21.6759 2.91611 22.4404 2.50126 23.2822C2.08642 24.1239 1.87359 25.0263 1.87501 25.9375C1.87501 27.9656 2.79901 29.8029 4.29226 31.1314L10.125 36.3438V32.875C11.2085 32.876 12.2816 32.697 13.2826 32.3481C14.2836 31.9993 15.1927 31.4876 15.9578 30.8423C17.0692 29.9075 17.8392 28.7247 18.177 27.4337C20.7279 28.7238 23.6483 29.4057 26.625 29.4063V36.3438L38.2905 25.919C41.277 23.2608 43.125 19.5874 43.125 15.5313C43.125 11.6995 41.277 8.23186 38.2905 5.72048ZM36.2871 24.3338L29.375 30.5116V27.0938H26.625C23.545 27.0938 20.6286 26.2381 18.232 24.6772C17.931 23.2965 17.1378 22.0255 15.9578 21.0327C15.3324 20.5103 14.612 20.0751 13.8238 19.7435C13.1976 18.4015 12.8758 16.9728 12.875 15.5313C12.8703 14.0122 13.224 12.5074 13.9155 11.104C14.607 9.70061 15.6227 8.42651 16.9038 7.35542C19.4998 5.17126 22.9524 3.96876 26.625 3.96876C30.2976 3.96876 33.7503 5.17126 36.3463 7.35658C37.6274 8.42733 38.6432 9.70122 39.3348 11.1044C40.0263 12.5077 40.3799 14.0123 40.375 15.5313C40.375 18.8624 38.9244 21.9866 36.2871 24.3338Z" fill="black"/>
<path d="M26.625 17.2656C27.7641 17.2656 28.6875 16.4891 28.6875 15.5312C28.6875 14.5734 27.7641 13.7969 26.625 13.7969C25.4859 13.7969 24.5625 14.5734 24.5625 15.5312C24.5625 16.4891 25.4859 17.2656 26.625 17.2656Z" fill="black"/>
<path d="M33.5 17.2656C34.6391 17.2656 35.5625 16.4891 35.5625 15.5312C35.5625 14.5734 34.6391 13.7969 33.5 13.7969C32.3609 13.7969 31.4375 14.5734 31.4375 15.5312C31.4375 16.4891 32.3609 17.2656 33.5 17.2656Z" fill="black"/>
<path d="M19.75 17.2656C20.8891 17.2656 21.8125 16.4891 21.8125 15.5312C21.8125 14.5734 20.8891 13.7969 19.75 13.7969C18.6109 13.7969 17.6875 14.5734 17.6875 15.5312C17.6875 16.4891 18.6109 17.2656 19.75 17.2656Z" fill="black"/>
</svg>
