<svg width="70" height="66" viewBox="0 0 70 66" fill="none" xmlns="http://www.w3.org/2000/svg">
<path d="M35 6.1875C19.291 6.1875 6.5625 18.1887 6.5625 33C6.5625 47.8113 19.291 59.8125 35 59.8125C50.709 59.8125 63.4375 47.8113 63.4375 33C63.4375 18.1887 50.709 6.1875 35 6.1875ZM35 57.5824C26.9883 57.5824 19.8105 54.1535 15.0254 48.7781C17.459 47.7855 23.5293 45.723 27.3711 44.666C27.6719 44.5758 27.7266 44.5629 27.7266 43.2867C27.7266 41.9203 27.5625 40.9535 27.207 40.2445C26.7285 39.2777 26.1543 37.6406 25.9492 36.1711C25.375 35.5395 24.5957 34.302 24.0898 31.9301C23.6523 29.8418 23.8574 29.0813 24.1445 28.3723C24.1719 28.2949 24.2129 28.2176 24.2266 28.1402C24.3359 27.6633 24.1855 25.1109 23.8027 23.1387C23.543 21.7852 23.8711 18.9105 25.8535 16.5258C27.0977 15.0176 29.4902 13.1742 33.7832 12.9164H36.1758C40.5371 13.1742 42.9297 15.0176 44.1738 16.5258C46.1562 18.9105 46.4844 21.7852 46.2109 23.1387C45.8281 25.1109 45.6777 27.6504 45.7871 28.1402C45.8008 28.2176 45.8418 28.2949 45.8691 28.3594C46.1562 29.0684 46.375 29.8289 45.9238 31.9172C45.418 34.2891 44.6387 35.5266 44.0645 36.1582C43.8594 37.6277 43.2852 39.252 42.8066 40.2316C42.3555 41.1211 41.9043 42.1781 41.9043 43.2352C41.9043 44.5113 41.959 44.5242 42.2734 44.6145C45.9238 45.6328 52.2129 47.6824 54.9883 48.7523C50.2031 54.1406 43.0254 57.5824 35 57.5824Z" fill="#D85B53"/>
</svg>
